<svg width="22" height="22" viewBox="0 0 22 22" fill="none" xmlns="http://www.w3.org/2000/svg">
<path d="M19.6641 9.0941H19.6047V7.75994C19.6047 3.47425 15.8147 0 11.1394 0C6.46403 0 2.67402 3.47425 2.67402 7.75994V9.0941H2.3176C1.01066 9.0941 0.000772226 10.156 0.000772226 11.3813V14.7847C-0.0321458 15.9723 0.991441 16.9595 2.28696 16.9896C2.29719 16.9899 2.30737 16.9901 2.3176 16.9902H4.51561C4.82694 16.9768 5.06748 16.7345 5.05281 16.4491C5.0523 16.4388 5.05145 16.4286 5.05026 16.4183V9.74753C5.05026 9.42081 4.84234 9.09405 4.51561 9.09405H3.86214V7.75988C3.86214 4.07572 7.12028 1.08906 11.1394 1.08906C15.1584 1.08906 18.4166 4.07572 18.4166 7.75988V9.09405H17.7631C17.4364 9.09405 17.2285 9.42076 17.2285 9.74753V16.4183C17.1953 16.7024 17.4197 16.9574 17.7296 16.9878C17.7407 16.9889 17.7519 16.9896 17.7631 16.9901H18.4463L18.3868 17.0718C17.4956 18.1576 16.097 18.7936 14.6146 18.7871C14.2901 17.3284 12.7369 16.3871 11.1457 16.6846C9.78489 16.939 8.80377 18.0314 8.7928 19.3045C8.80906 20.7976 10.1342 22.0001 11.7631 22C12.5694 21.988 13.338 21.6847 13.9017 21.1559C14.282 20.7989 14.5312 20.342 14.6146 19.849C16.4709 19.8554 18.2216 19.0581 19.3373 17.698L19.9017 16.9356C21.1789 16.8539 21.9809 16.1188 21.9809 15.0569V11.6534C21.9809 10.4827 21.0305 9.0941 19.6641 9.0941ZM3.86214 15.901H2.3176C1.678 15.8868 1.17212 15.4 1.1877 14.8137C1.18798 14.804 1.18838 14.7944 1.18889 14.7847V11.3812C1.18889 10.755 1.66413 10.1832 2.3176 10.1832H3.86214V15.901ZM13.0404 20.3936C12.7112 20.7208 12.2487 20.9082 11.7632 20.911C10.7968 20.8969 10.0125 20.19 9.98097 19.3045C9.98057 18.4173 10.7649 17.6978 11.7327 17.6974C12.7006 17.6971 13.4855 18.416 13.4859 19.3032C13.4859 19.3036 13.4859 19.3041 13.4859 19.3045C13.5107 19.7088 13.349 20.104 13.0404 20.3936ZM20.7928 15.057C20.7928 15.7921 20.0205 15.901 19.6641 15.901H18.4166V10.1832H19.6641C20.3176 10.1832 20.7928 11.0273 20.7928 11.6535V15.057Z" fill="#0ABAB5"/>
<path d="M19.0255 9.0941H18.9711V7.75994C18.9711 3.47425 15.4969 0 11.2111 0C6.92539 0 3.45119 3.47425 3.45119 7.75994V9.0941H3.12448C1.92644 9.0941 1.00071 10.156 1.00071 11.3813V14.7847C0.970533 15.9723 1.90883 16.9595 3.09639 16.9896C3.10577 16.9899 3.1151 16.9901 3.12448 16.9902H5.13933C5.42471 16.9768 5.64521 16.7345 5.63177 16.4491C5.6313 16.4388 5.63052 16.4286 5.62942 16.4183V9.74753C5.62942 9.42081 5.43884 9.09405 5.13933 9.09405H4.54031V7.75988C4.54031 4.07571 7.52696 1.08906 11.2111 1.08906C14.8953 1.08906 17.8819 4.07571 17.8819 7.75988V9.09405H17.2829C16.9834 9.09405 16.7928 9.42076 16.7928 9.74753V16.4183C16.7624 16.7024 16.9681 16.9574 17.2522 16.9878C17.2624 16.9889 17.2727 16.9896 17.2829 16.9901H17.9092L17.8547 17.0718C17.0377 18.1576 15.7556 18.7936 14.3968 18.7871C14.0993 17.3284 12.6756 16.3871 11.2169 16.6846C9.96952 16.939 9.07016 18.0314 9.0601 19.3045C9.07501 20.7976 10.2897 22.0001 11.7829 22C12.522 21.988 13.2266 21.6847 13.7433 21.1559C14.0919 20.7989 14.3203 20.342 14.3968 19.849C16.0984 19.8554 17.7032 19.0581 18.726 17.698L19.2433 16.9356C20.4141 16.8539 21.1492 16.1188 21.1492 15.0569V11.6534C21.1493 10.4827 20.278 9.0941 19.0255 9.0941ZM4.54031 15.901H3.12448C2.53818 15.8868 2.07445 15.4 2.08873 14.8137C2.08899 14.804 2.08935 14.7944 2.08982 14.7847V11.3812C2.08982 10.755 2.52546 10.1832 3.12448 10.1832H4.54031V15.901ZM12.9537 20.3936C12.652 20.7208 12.228 20.9082 11.7829 20.911C10.8971 20.8969 10.1782 20.19 10.1493 19.3045C10.1489 18.4173 10.8678 17.6978 11.7551 17.6974C12.6423 17.6971 13.3618 18.416 13.3622 19.3032V19.3045C13.3848 19.7088 13.2366 20.104 12.9537 20.3936ZM20.0602 15.057C20.0602 15.7921 19.3522 15.901 19.0255 15.901H17.8819V10.1832H19.0255C19.6245 10.1832 20.0602 11.0273 20.0602 11.6535V15.057Z" fill="#0ABAB5"/>
</svg>
