<svg width="24" height="24" viewBox="0 0 24 24" fill="none" xmlns="http://www.w3.org/2000/svg">
<rect width="24" height="24" rx="6" fill="#CEDAFF"/>
<path d="M11.4887 16.5V9.95455H12.4944V16.5H11.4887ZM12.0001 8.86364C11.8041 8.86364 11.635 8.79688 11.493 8.66335C11.3538 8.52983 11.2842 8.36932 11.2842 8.18182C11.2842 7.99432 11.3538 7.83381 11.493 7.70028C11.635 7.56676 11.8041 7.5 12.0001 7.5C12.1961 7.5 12.3637 7.56676 12.5029 7.70028C12.645 7.83381 12.716 7.99432 12.716 8.18182C12.716 8.36932 12.645 8.52983 12.5029 8.66335C12.3637 8.79688 12.1961 8.86364 12.0001 8.86364Z" fill="#1C3380"/>
</svg>
