<svg width="19" height="12" viewBox="0 0 19 12" fill="none" xmlns="http://www.w3.org/2000/svg">
<path d="M1.5 12C1.21667 12 0.979333 11.904 0.788 11.712C0.596 11.5207 0.5 11.2833 0.5 11C0.5 10.7167 0.596 10.4793 0.788 10.288C0.979333 10.096 1.21667 10 1.5 10H17.5C17.7833 10 18.0207 10.096 18.212 10.288C18.404 10.4793 18.5 10.7167 18.5 11C18.5 11.2833 18.404 11.5207 18.212 11.712C18.0207 11.904 17.7833 12 17.5 12H1.5ZM1.5 7C1.21667 7 0.979333 6.904 0.788 6.712C0.596 6.52067 0.5 6.28333 0.5 6C0.5 5.71667 0.596 5.479 0.788 5.287C0.979333 5.09567 1.21667 5 1.5 5H17.5C17.7833 5 18.0207 5.09567 18.212 5.287C18.404 5.479 18.5 5.71667 18.5 6C18.5 6.28333 18.404 6.52067 18.212 6.712C18.0207 6.904 17.7833 7 17.5 7H1.5ZM1.5 2C1.21667 2 0.979333 1.90433 0.788 1.713C0.596 1.521 0.5 1.28333 0.5 1C0.5 0.716667 0.596 0.479 0.788 0.287C0.979333 0.0956668 1.21667 0 1.5 0H17.5C17.7833 0 18.0207 0.0956668 18.212 0.287C18.404 0.479 18.5 0.716667 18.5 1C18.5 1.28333 18.404 1.521 18.212 1.713C18.0207 1.90433 17.7833 2 17.5 2H1.5Z" fill="#8B9099" fill-opacity="0.7"/>
</svg>
