<svg width="21" height="20" viewBox="0 0 21 20" fill="none" xmlns="http://www.w3.org/2000/svg">
<path d="M7.16668 17.4999H3.83334C3.61233 17.4999 3.40037 17.4121 3.24409 17.2558C3.08781 17.0996 3.00001 16.8876 3.00001 16.6666V13.3333C3.00001 13.1122 2.91221 12.9003 2.75593 12.744C2.59965 12.5877 2.38769 12.4999 2.16668 12.4999C1.94566 12.4999 1.7337 12.5877 1.57742 12.744C1.42114 12.9003 1.33334 13.1122 1.33334 13.3333V16.6666C1.33334 17.3296 1.59674 17.9655 2.06558 18.4344C2.53442 18.9032 3.1703 19.1666 3.83334 19.1666H7.16668C7.38769 19.1666 7.59965 19.0788 7.75593 18.9225C7.91221 18.7662 8.00001 18.5543 8.00001 18.3333C8.00001 18.1122 7.91221 17.9003 7.75593 17.744C7.59965 17.5877 7.38769 17.4999 7.16668 17.4999ZM18.8333 12.4999C18.6123 12.4999 18.4004 12.5877 18.2441 12.744C18.0878 12.9003 18 13.1122 18 13.3333V16.6666C18 16.8876 17.9122 17.0996 17.7559 17.2558C17.5997 17.4121 17.3877 17.4999 17.1667 17.4999H13.8333C13.6123 17.4999 13.4004 17.5877 13.2441 17.744C13.0878 17.9003 13 18.1122 13 18.3333C13 18.5543 13.0878 18.7662 13.2441 18.9225C13.4004 19.0788 13.6123 19.1666 13.8333 19.1666H17.1667C17.8297 19.1666 18.4656 18.9032 18.9344 18.4344C19.4033 17.9655 19.6667 17.3296 19.6667 16.6666V13.3333C19.6667 13.1122 19.5789 12.9003 19.4226 12.744C19.2663 12.5877 19.0544 12.4999 18.8333 12.4999ZM17.1667 0.833252H13.8333C13.6123 0.833252 13.4004 0.921049 13.2441 1.07733C13.0878 1.23361 13 1.44557 13 1.66659C13 1.8876 13.0878 2.09956 13.2441 2.25584C13.4004 2.41212 13.6123 2.49992 13.8333 2.49992H17.1667C17.3877 2.49992 17.5997 2.58772 17.7559 2.744C17.9122 2.90028 18 3.11224 18 3.33325V6.66659C18 6.8876 18.0878 7.09956 18.2441 7.25584C18.4004 7.41212 18.6123 7.49992 18.8333 7.49992C19.0544 7.49992 19.2663 7.41212 19.4226 7.25584C19.5789 7.09956 19.6667 6.8876 19.6667 6.66659V3.33325C19.6667 2.67021 19.4033 2.03433 18.9344 1.56549C18.4656 1.09664 17.8297 0.833252 17.1667 0.833252ZM2.16668 7.49992C2.38769 7.49992 2.59965 7.41212 2.75593 7.25584C2.91221 7.09956 3.00001 6.8876 3.00001 6.66659V3.33325C3.00001 3.11224 3.08781 2.90028 3.24409 2.744C3.40037 2.58772 3.61233 2.49992 3.83334 2.49992H7.16668C7.38769 2.49992 7.59965 2.41212 7.75593 2.25584C7.91221 2.09956 8.00001 1.8876 8.00001 1.66659C8.00001 1.44557 7.91221 1.23361 7.75593 1.07733C7.59965 0.921049 7.38769 0.833252 7.16668 0.833252H3.83334C3.1703 0.833252 2.53442 1.09664 2.06558 1.56549C1.59674 2.03433 1.33334 2.67021 1.33334 3.33325V6.66659C1.33334 6.8876 1.42114 7.09956 1.57742 7.25584C1.7337 7.41212 1.94566 7.49992 2.16668 7.49992ZM8.83334 4.16659H5.50001C5.279 4.16659 5.06704 4.25438 4.91075 4.41066C4.75447 4.56694 4.66668 4.77891 4.66668 4.99992V8.33325C4.66668 8.55427 4.75447 8.76623 4.91075 8.92251C5.06704 9.07879 5.279 9.16659 5.50001 9.16659H8.83334C9.05436 9.16659 9.26632 9.07879 9.4226 8.92251C9.57888 8.76623 9.66668 8.55427 9.66668 8.33325V4.99992C9.66668 4.77891 9.57888 4.56694 9.4226 4.41066C9.26632 4.25438 9.05436 4.16659 8.83334 4.16659ZM8.00001 7.49992H6.33334V5.83325H8.00001V7.49992ZM12.1667 9.16659H15.5C15.721 9.16659 15.933 9.07879 16.0893 8.92251C16.2455 8.76623 16.3333 8.55427 16.3333 8.33325V4.99992C16.3333 4.77891 16.2455 4.56694 16.0893 4.41066C15.933 4.25438 15.721 4.16659 15.5 4.16659H12.1667C11.9457 4.16659 11.7337 4.25438 11.5774 4.41066C11.4211 4.56694 11.3333 4.77891 11.3333 4.99992V8.33325C11.3333 8.55427 11.4211 8.76623 11.5774 8.92251C11.7337 9.07879 11.9457 9.16659 12.1667 9.16659ZM13 5.83325H14.6667V7.49992H13V5.83325ZM8.83334 10.8333H5.50001C5.279 10.8333 5.06704 10.9211 4.91075 11.0773C4.75447 11.2336 4.66668 11.4456 4.66668 11.6666V14.9999C4.66668 15.2209 4.75447 15.4329 4.91075 15.5892C5.06704 15.7455 5.279 15.8333 5.50001 15.8333H8.83334C9.05436 15.8333 9.26632 15.7455 9.4226 15.5892C9.57888 15.4329 9.66668 15.2209 9.66668 14.9999V11.6666C9.66668 11.4456 9.57888 11.2336 9.4226 11.0773C9.26632 10.9211 9.05436 10.8333 8.83334 10.8333ZM8.00001 14.1666H6.33334V12.4999H8.00001V14.1666ZM12.1667 13.3333C12.3877 13.3333 12.5997 13.2455 12.7559 13.0892C12.9122 12.9329 13 12.7209 13 12.4999C13.221 12.4999 13.433 12.4121 13.5893 12.2558C13.7455 12.0996 13.8333 11.8876 13.8333 11.6666C13.8333 11.4456 13.7455 11.2336 13.5893 11.0773C13.433 10.9211 13.221 10.8333 13 10.8333H12.1667C11.9457 10.8333 11.7337 10.9211 11.5774 11.0773C11.4211 11.2336 11.3333 11.4456 11.3333 11.6666V12.4999C11.3333 12.7209 11.4211 12.9329 11.5774 13.0892C11.7337 13.2455 11.9457 13.3333 12.1667 13.3333ZM15.5 10.8333C15.279 10.8333 15.067 10.9211 14.9108 11.0773C14.7545 11.2336 14.6667 11.4456 14.6667 11.6666V14.1666C14.4457 14.1666 14.2337 14.2544 14.0774 14.4107C13.9211 14.5669 13.8333 14.7789 13.8333 14.9999C13.8333 15.2209 13.9211 15.4329 14.0774 15.5892C14.2337 15.7455 14.4457 15.8333 14.6667 15.8333H15.5C15.721 15.8333 15.933 15.7455 16.0893 15.5892C16.2455 15.4329 16.3333 15.2209 16.3333 14.9999V11.6666C16.3333 11.4456 16.2455 11.2336 16.0893 11.0773C15.933 10.9211 15.721 10.8333 15.5 10.8333ZM12.1667 14.1666C12.0019 14.1666 11.8407 14.2155 11.7037 14.307C11.5667 14.3986 11.4599 14.5287 11.3968 14.681C11.3337 14.8333 11.3172 15.0008 11.3494 15.1625C11.3815 15.3241 11.4609 15.4726 11.5774 15.5892C11.694 15.7057 11.8425 15.7851 12.0041 15.8172C12.1658 15.8494 12.3333 15.8329 12.4856 15.7698C12.6379 15.7067 12.768 15.5999 12.8596 15.4629C12.9511 15.3259 13 15.1647 13 14.9999C13 14.7789 12.9122 14.5669 12.7559 14.4107C12.5997 14.2544 12.3877 14.1666 12.1667 14.1666Z" fill="#8B9099" fill-opacity="0.7"/>
</svg>
