<svg width="20" height="21" viewBox="0 0 20 21" fill="none" xmlns="http://www.w3.org/2000/svg">
<path fill-rule="evenodd" clip-rule="evenodd" d="M12.952 2.60487C12.7782 2.66661 12.5437 2.77375 12.1485 2.95614L5.55295 6.00026L13 6.00026V3.50092C13 3.06567 12.999 2.80786 12.9822 2.62419C12.9813 2.61391 12.9803 2.60432 12.9794 2.5954C12.9709 2.59826 12.9618 2.60141 12.952 2.60487ZM15 6.00027L15 3.46033C15 3.07947 15 2.72831 14.9739 2.44234C14.9469 2.146 14.8825 1.77214 14.6496 1.4323C14.3434 0.98572 13.8693 0.682347 13.3355 0.591516C12.9293 0.522395 12.5629 0.620645 12.2825 0.720266C12.0119 0.816396 11.6931 0.963581 11.3473 1.12321L2.43994 5.2343C2.40064 5.25243 2.36165 5.27037 2.32299 5.28815C1.76618 5.54422 1.2767 5.76933 0.903143 6.13441C0.576072 6.45406 0.32641 6.84426 0.173242 7.27518C-0.00169539 7.76734 -0.000963453 8.3061 -0.000130896 8.91897C-7.30793e-05 8.96153 -1.47264e-05 9.00444 -1.47264e-05 9.04773V10.0845C-1.75278e-05 10.1101 -1.65741e-05 10.1358 -1.57397e-05 10.1617L-1.58589e-05 16.8388C-3.37403e-05 17.366 -4.92372e-05 17.8207 0.0305545 18.1953C0.0628555 18.5906 0.134171 18.9839 0.326965 19.3622C0.614585 19.9267 1.07353 20.3857 1.63801 20.6733C2.01639 20.8661 2.40961 20.9374 2.80496 20.9697C3.17952 21.0003 3.63428 21.0003 4.16142 21.0003H15.8386C16.3657 21.0003 16.8204 21.0003 17.195 20.9697C17.5904 20.9374 17.9836 20.8661 18.362 20.6733C18.9264 20.3857 19.3854 19.9267 19.673 19.3622C19.8658 18.9839 19.9371 18.5906 19.9694 18.1953C20 17.8207 20 17.366 20 16.8388V10.1617C20 9.63456 20 9.1798 19.9694 8.80524C19.9371 8.40989 19.8658 8.01667 19.673 7.63829C19.3854 7.07381 18.9264 6.61487 18.362 6.32725C17.9836 6.13445 17.5904 6.06314 17.195 6.03083C16.8204 6.00023 16.3657 6.00025 15.8385 6.00026L15 6.00027ZM4.19999 8.00026C3.62343 8.00026 3.25116 8.00104 2.96782 8.02419C2.69616 8.04639 2.59544 8.08406 2.54599 8.10926C2.35783 8.20513 2.20485 8.35811 2.10898 8.54627C2.08379 8.59572 2.04611 8.69644 2.02391 8.9681C2.00076 9.25144 1.99999 9.62371 1.99999 10.2003V14.0003C1.99999 14.0001 1.99999 14.0004 1.99999 14.0003L1.99998 16.8003C1.99998 17.3768 2.00076 17.7491 2.02391 18.0324C2.04611 18.3041 2.08379 18.4048 2.10898 18.4543C2.20485 18.6424 2.35783 18.7954 2.54599 18.8913C2.59544 18.9165 2.69616 18.9541 2.96782 18.9763C3.25116 18.9995 3.62343 19.0003 4.19999 19.0003H15.8C16.3765 19.0003 16.7488 18.9995 17.0322 18.9763C17.3038 18.9541 17.4045 18.9165 17.454 18.8913C17.6421 18.7954 17.7951 18.6424 17.891 18.4543C17.9162 18.4048 17.9539 18.3041 17.9761 18.0324C17.9992 17.7491 18 17.3768 18 16.8003V10.2003C18 9.62371 17.9992 9.25144 17.9761 8.9681C17.9539 8.69644 17.9162 8.59572 17.891 8.54627C17.7951 8.35811 17.6421 8.20513 17.454 8.10926C17.4045 8.08407 17.3038 8.04639 17.0322 8.02419C16.7488 8.00104 16.3765 8.00027 15.8 8.00027L4.19999 8.00026ZM13 13.5003C13 12.6718 13.6716 12.0003 14.5 12.0003C15.3284 12.0003 16 12.6718 16 13.5003C16 14.3287 15.3284 15.0003 14.5 15.0003C13.6716 15.0003 13 14.3287 13 13.5003Z" fill="#0ABAB5"/>
</svg>
